<svg id="visual" viewBox="0 0 1080 500" width="1080" height="500" xmlns="http://www.w3.org/2000/svg" xmlns:xlink="http://www.w3.org/1999/xlink" version="1.1"><rect x="0" y="0" width="1080" height="500" fill="#fff"></rect><path d="M0 368L36 365.3C72 362.7 144 357.3 216 358.7C288 360 360 368 432 353.5C504 339 576 302 648 300.2C720 298.3 792 331.7 864 328.3C936 325 1008 285 1044 265L1080 245L1080 501L1044 501C1008 501 936 501 864 501C792 501 720 501 648 501C576 501 504 501 432 501C360 501 288 501 216 501C144 501 72 501 36 501L0 501Z" fill="#92fe9d"></path><path d="M0 375L36 372C72 369 144 363 216 357.7C288 352.3 360 347.7 432 354.5C504 361.3 576 379.7 648 375.7C720 371.7 792 345.3 864 344.7C936 344 1008 369 1044 381.5L1080 394L1080 501L1044 501C1008 501 936 501 864 501C792 501 720 501 648 501C576 501 504 501 432 501C360 501 288 501 216 501C144 501 72 501 36 501L0 501Z" fill="#39f2cf"></path><path d="M0 377L36 372.7C72 368.3 144 359.7 216 369.3C288 379 360 407 432 411.3C504 415.7 576 396.3 648 384C720 371.7 792 366.3 864 373.7C936 381 1008 401 1044 411L1080 421L1080 501L1044 501C1008 501 936 501 864 501C792 501 720 501 648 501C576 501 504 501 432 501C360 501 288 501 216 501C144 501 72 501 36 501L0 501Z" fill="#00e0f0"></path><path d="M0 440L36 433.8C72 427.7 144 415.3 216 418.2C288 421 360 439 432 438.7C504 438.3 576 419.7 648 415C720 410.3 792 419.7 864 427C936 434.3 1008 439.7 1044 442.3L1080 445L1080 501L1044 501C1008 501 936 501 864 501C792 501 720 501 648 501C576 501 504 501 432 501C360 501 288 501 216 501C144 501 72 501 36 501L0 501Z" fill="#00c9ff"></path></svg>