<svg id="visual" viewBox="0 0 1080 500" width="1080" height="500" xmlns="http://www.w3.org/2000/svg" xmlns:xlink="http://www.w3.org/1999/xlink" version="1.1"><path d="M0 294L36 293.2C72 292.3 144 290.7 216 272.8C288 255 360 221 432 223.5C504 226 576 265 648 268.3C720 271.7 792 239.3 864 221.3C936 203.3 1008 199.7 1044 197.8L1080 196L1080 501L1044 501C1008 501 936 501 864 501C792 501 720 501 648 501C576 501 504 501 432 501C360 501 288 501 216 501C144 501 72 501 36 501L0 501Z" fill="#fde2ff"></path></svg>