<svg id="visual" viewBox="0 0 900 600" width="900" height="600" xmlns="http://www.w3.org/2000/svg" xmlns:xlink="http://www.w3.org/1999/xlink" version="1.1"><rect x="0" y="0" width="900" height="600" fill="#fff"></rect><path d="M0 441L30 438C60 435 120 429 180 430.7C240 432.3 300 441.7 360 424.2C420 406.7 480 362.3 540 360.3C600 358.3 660 398.7 720 394.8C780 391 840 343 870 319L900 295L900 601L870 601C840 601 780 601 720 601C660 601 600 601 540 601C480 601 420 601 360 601C300 601 240 601 180 601C120 601 60 601 30 601L0 601Z" fill="#92fe9d"></path><path d="M0 450L30 446.5C60 443 120 436 180 429.7C240 423.3 300 417.7 360 425.8C420 434 480 456 540 451.2C600 446.3 660 414.7 720 413.8C780 413 840 443 870 458L900 473L900 601L870 601C840 601 780 601 720 601C660 601 600 601 540 601C480 601 420 601 360 601C300 601 240 601 180 601C120 601 60 601 30 601L0 601Z" fill="#39f2cf"></path><path d="M0 453L30 447.7C60 442.3 120 431.7 180 443.2C240 454.7 300 488.3 360 493.5C420 498.7 480 475.3 540 460.7C600 446 660 440 720 448.8C780 457.7 840 481.3 870 493.2L900 505L900 601L870 601C840 601 780 601 720 601C660 601 600 601 540 601C480 601 420 601 360 601C300 601 240 601 180 601C120 601 60 601 30 601L0 601Z" fill="#00e0f0"></path><path d="M0 528L30 520.7C60 513.3 120 498.7 180 502.2C240 505.7 300 527.3 360 526.8C420 526.3 480 503.7 540 498C600 492.3 660 503.7 720 512.7C780 521.7 840 528.3 870 531.7L900 535L900 601L870 601C840 601 780 601 720 601C660 601 600 601 540 601C480 601 420 601 360 601C300 601 240 601 180 601C120 601 60 601 30 601L0 601Z" fill="#00c9ff"></path></svg>