<svg id="visual" viewBox="0 0 900 600" width="900" height="600" xmlns="http://www.w3.org/2000/svg" xmlns:xlink="http://www.w3.org/1999/xlink" version="1.1"><path d="M0 157L30 159.7C60 162.3 120 167.7 180 189.8C240 212 300 251 360 262.3C420 273.7 480 257.3 540 275.2C600 293 660 345 720 338.8C780 332.7 840 268.3 870 236.2L900 204L900 601L870 601C840 601 780 601 720 601C660 601 600 601 540 601C480 601 420 601 360 601C300 601 240 601 180 601C120 601 60 601 30 601L0 601Z" fill="#39f2cf"></path><path d="M0 302L30 292.3C60 282.7 120 263.3 180 258.8C240 254.3 300 264.7 360 281C420 297.3 480 319.7 540 354C600 388.3 660 434.7 720 418.2C780 401.7 840 322.3 870 282.7L900 243L900 601L870 601C840 601 780 601 720 601C660 601 600 601 540 601C480 601 420 601 360 601C300 601 240 601 180 601C120 601 60 601 30 601L0 601Z" fill="#96ebff"></path><path d="M0 507L30 491.2C60 475.3 120 443.7 180 428.8C240 414 300 416 360 422.2C420 428.3 480 438.7 540 429.5C600 420.3 660 391.7 720 398.3C780 405 840 447 870 468L900 489L900 601L870 601C840 601 780 601 720 601C660 601 600 601 540 601C480 601 420 601 360 601C300 601 240 601 180 601C120 601 60 601 30 601L0 601Z" fill="#fde2ff"></path></svg>