<svg id="visual" viewBox="0 0 1080 500" width="1080" height="500" xmlns="http://www.w3.org/2000/svg" xmlns:xlink="http://www.w3.org/1999/xlink" version="1.1"><path d="M0 119L36 130C72 141 144 163 216 212.3C288 261.7 360 338.3 432 336.8C504 335.3 576 255.7 648 244.2C720 232.7 792 289.3 864 303.8C936 318.3 1008 290.7 1044 276.8L1080 263L1080 501L1044 501C1008 501 936 501 864 501C792 501 720 501 648 501C576 501 504 501 432 501C360 501 288 501 216 501C144 501 72 501 36 501L0 501Z" fill="#39f2cf"></path><path d="M0 254L36 276.5C72 299 144 344 216 348.2C288 352.3 360 315.7 432 305.2C504 294.7 576 310.3 648 317.8C720 325.3 792 324.7 864 328.3C936 332 1008 340 1044 344L1080 348L1080 501L1044 501C1008 501 936 501 864 501C792 501 720 501 648 501C576 501 504 501 432 501C360 501 288 501 216 501C144 501 72 501 36 501L0 501Z" fill="#96ebff"></path><path d="M0 383L36 371.2C72 359.3 144 335.7 216 347.5C288 359.3 360 406.7 432 420.5C504 434.3 576 414.7 648 400.3C720 386 792 377 864 368.3C936 359.7 1008 351.3 1044 347.2L1080 343L1080 501L1044 501C1008 501 936 501 864 501C792 501 720 501 648 501C576 501 504 501 432 501C360 501 288 501 216 501C144 501 72 501 36 501L0 501Z" fill="#fde2ff"></path></svg>