<svg id="visual" viewBox="0 0 900 600" width="900" height="600" xmlns="http://www.w3.org/2000/svg" xmlns:xlink="http://www.w3.org/1999/xlink" version="1.1"><path d="M0 283L30 280.7C60 278.3 120 273.7 180 264.2C240 254.7 300 240.3 360 239.3C420 238.3 480 250.7 540 277.8C600 305 660 347 720 350.7C780 354.3 840 319.7 870 302.3L900 285L900 601L870 601C840 601 780 601 720 601C660 601 600 601 540 601C480 601 420 601 360 601C300 601 240 601 180 601C120 601 60 601 30 601L0 601Z" fill="#fde2ff"></path></svg>