<svg id="visual" viewBox="0 0 675 900" width="675" height="900" xmlns="http://www.w3.org/2000/svg" xmlns:xlink="http://www.w3.org/1999/xlink" version="1.1"><path d="M0 284L22.5 289.3C45 294.7 90 305.3 135 322.5C180 339.7 225 363.3 270 375.5C315 387.7 360 388.3 405 422.2C450 456 495 523 540 551C585 579 630 568 652.5 562.5L675 557L675 901L652.5 901C630 901 585 901 540 901C495 901 450 901 405 901C360 901 315 901 270 901C225 901 180 901 135 901C90 901 45 901 22.5 901L0 901Z" fill="#39f2cf"></path><path d="M0 497L22.5 498C45 499 90 501 135 494.3C180 487.7 225 472.3 270 469C315 465.7 360 474.3 405 497.2C450 520 495 557 540 550.5C585 544 630 494 652.5 469L675 444L675 901L652.5 901C630 901 585 901 540 901C495 901 450 901 405 901C360 901 315 901 270 901C225 901 180 901 135 901C90 901 45 901 22.5 901L0 901Z" fill="#96ebff"></path><path d="M0 680L22.5 684.3C45 688.7 90 697.3 135 706.8C180 716.3 225 726.7 270 706.8C315 687 360 637 405 639.2C450 641.3 495 695.7 540 711.2C585 726.7 630 703.3 652.5 691.7L675 680L675 901L652.5 901C630 901 585 901 540 901C495 901 450 901 405 901C360 901 315 901 270 901C225 901 180 901 135 901C90 901 45 901 22.5 901L0 901Z" fill="#fde2ff"></path></svg>