<svg id="visual" viewBox="0 0 675 900" width="675" height="900" xmlns="http://www.w3.org/2000/svg" xmlns:xlink="http://www.w3.org/1999/xlink" version="1.1"><rect x="0" y="0" width="675" height="900" fill="#fff"></rect><path d="M0 528L22.5 543.5C45 559 90 590 135 594.8C180 599.7 225 578.3 270 551.8C315 525.3 360 493.7 405 493C450 492.3 495 522.7 540 518C585 513.3 630 473.7 652.5 453.8L675 434L675 901L652.5 901C630 901 585 901 540 901C495 901 450 901 405 901C360 901 315 901 270 901C225 901 180 901 135 901C90 901 45 901 22.5 901L0 901Z" fill="#92fe9d"></path><path d="M0 627L22.5 607C45 587 90 547 135 550.8C180 554.7 225 602.3 270 605.5C315 608.7 360 567.3 405 553.2C450 539 495 552 540 576.3C585 600.7 630 636.3 652.5 654.2L675 672L675 901L652.5 901C630 901 585 901 540 901C495 901 450 901 405 901C360 901 315 901 270 901C225 901 180 901 135 901C90 901 45 901 22.5 901L0 901Z" fill="#39f2cf"></path><path d="M0 722L22.5 713.7C45 705.3 90 688.7 135 678C180 667.3 225 662.7 270 662.8C315 663 360 668 405 658.2C450 648.3 495 623.7 540 628.3C585 633 630 667 652.5 684L675 701L675 901L652.5 901C630 901 585 901 540 901C495 901 450 901 405 901C360 901 315 901 270 901C225 901 180 901 135 901C90 901 45 901 22.5 901L0 901Z" fill="#00e0f0"></path><path d="M0 706L22.5 709.8C45 713.7 90 721.3 135 734.3C180 747.3 225 765.7 270 772.7C315 779.7 360 775.3 405 772.8C450 770.3 495 769.7 540 768C585 766.3 630 763.7 652.5 762.3L675 761L675 901L652.5 901C630 901 585 901 540 901C495 901 450 901 405 901C360 901 315 901 270 901C225 901 180 901 135 901C90 901 45 901 22.5 901L0 901Z" fill="#00c9ff"></path></svg>